<?xml version="1.0" standalone="no"?>
<!DOCTYPE svg PUBLIC "-//W3C//DTD SVG 20010904//EN"
 "http://www.w3.org/TR/2001/REC-SVG-20010904/DTD/svg10.dtd">
<svg version="1.0" xmlns="http://www.w3.org/2000/svg"
 width="243.000000pt" height="243.000000pt" viewBox="0 0 243.000000 243.000000"
 preserveAspectRatio="xMidYMid meet">

<g transform="translate(0.000000,243.000000) scale(0.100000,-0.100000)"
fill="#000000" stroke="none">
<path d="M1027 2285 c-163 -31 -335 -106 -454 -198 -77 -59 -199 -188 -246
-260 -58 -87 -115 -216 -144 -325 -24 -87 -27 -115 -27 -272 0 -157 3 -185 27
-272 29 -109 86 -238 144 -325 50 -76 171 -203 253 -265 89 -68 245 -142 365
-175 90 -24 117 -27 275 -27 157 0 185 3 272 27 109 29 238 86 325 144 76 50
203 171 265 253 68 89 142 245 175 365 24 90 27 117 27 275 0 158 -3 185 -27
275 -33 120 -107 276 -175 365 -62 82 -189 203 -265 253 -88 59 -217 116 -325
144 -124 32 -344 41 -465 18z m438 -59 c55 -14 145 -48 200 -75 100 -49 206
-119 202 -133 -1 -4 -38 -54 -82 -110 l-80 -102 -3 72 -3 72 -404 0 -405 0 0
-530 0 -530 -145 0 -145 0 0 -179 0 -180 44 -3 44 -3 -43 -58 -44 -58 -77 73
c-42 40 -99 102 -126 138 -68 89 -143 245 -175 365 -23 87 -26 120 -26 245 0
124 3 159 26 242 48 179 130 328 252 457 88 93 163 151 268 206 230 122 479
153 722 91z m511 -309 c112 -119 195 -273 241 -445 23 -83 26 -118 26 -242 0
-125 -3 -158 -26 -245 -32 -120 -107 -276 -175 -365 -61 -81 -179 -193 -255
-243 -87 -58 -216 -115 -325 -144 -83 -23 -118 -26 -242 -26 -125 0 -158 3
-245 26 -89 24 -273 105 -317 139 -15 12 -12 19 40 85 l57 72 118 1 117 0 0
148 0 147 286 360 c157 198 292 367 300 375 12 12 14 -29 14 -328 l0 -342
-120 0 -120 0 0 -180 0 -180 175 0 175 0 0 595 0 595 103 130 c56 71 105 130
108 130 4 0 33 -28 65 -63z m-386 -166 l0 -89 -291 -369 c-160 -202 -295 -372
-300 -378 -5 -5 -9 192 -9 458 l0 467 300 0 300 0 0 -89z"/>
</g>
</svg>
